<svg xmlns="http://www.w3.org/2000/svg" viewBox="0 0 760 334" width="760" height="334" role="img" aria-label="Stars by project (log scale)">

  <style>
    .bg { fill: #ffffff; }
    .label, .value, .title, .sub { font-family: ui-sans-serif, -apple-system, "Segoe UI", Roboto, "Helvetica Neue", sans-serif; }
    .title { font-size: 15px; font-weight: 600; fill: #111827; }
    .sub   { font-size: 11px; fill: #6b7280; }
    .label { font-size: 12px; fill: #374151; }
    .value { font-size: 11px; fill: #6b7280; }
    .bar   { fill: #2563eb; }
    .bar-alt { fill: #7c3aed; }
    .axis  { stroke: #e5e7eb; stroke-width: 1; }
    @media (prefers-color-scheme: dark) {
      .bg { fill: #0b0f19; }
      .title { fill: #f3f4f6; }
      .sub, .value { fill: #9ca3af; }
      .label { fill: #d1d5db; }
      .bar { fill: #60a5fa; }
      .bar-alt { fill: #a78bfa; }
      .axis { stroke: #1f2937; }
    }
  </style>

<rect class="bg" width="760" height="334" rx="8"/>
<text class="title" x="20" y="28">Stars by project (log scale)</text>
<text class="sub" x="20" y="46">log10(stars + 1) · popularity only, not maturity · fetched 2026-09-28T10:16:48Z</text>
<line class="axis" x1="210" y1="60" x2="210" y2="314"/>
<text class="label" x="200" y="83" text-anchor="end">LeRobot</text>
<rect class="bar" x="210" y="73" width="460" height="14" rx="3"/>
<text class="value" x="678" y="84">27,821</text>
<text class="label" x="200" y="109" text-anchor="end">lm-evaluation-harness</text>
<rect class="bar" x="210" y="99" width="429" height="14" rx="3"/>
<text class="value" x="647" y="110">14,095</text>
<text class="label" x="200" y="135" text-anchor="end">OpenCompass</text>
<rect class="bar" x="210" y="125" width="400" height="14" rx="3"/>
<text class="value" x="618" y="136">7,480</text>
<text class="label" x="200" y="161" text-anchor="end">HELM</text>
<rect class="bar" x="210" y="151" width="358" height="14" rx="3"/>
<text class="value" x="576" y="162">2,924</text>
<text class="label" x="200" y="187" text-anchor="end">Inspect AI</text>
<rect class="bar" x="210" y="177" width="357" height="14" rx="3"/>
<text class="value" x="575" y="188">2,868</text>
<text class="label" x="200" y="213" text-anchor="end">LightEval</text>
<rect class="bar" x="210" y="203" width="352" height="14" rx="3"/>
<text class="value" x="570" y="214">2,549</text>
<text class="label" x="200" y="239" text-anchor="end">LIBERO</text>
<rect class="bar" x="210" y="229" width="349" height="14" rx="3"/>
<text class="value" x="567" y="240">2,362</text>
<text class="label" x="200" y="265" text-anchor="end">SimplerEnv</text>
<rect class="bar" x="210" y="255" width="317" height="14" rx="3"/>
<text class="value" x="535" y="266">1,169</text>
<text class="label" x="200" y="291" text-anchor="end">vla-evaluation-harness</text>
<rect class="bar" x="210" y="281" width="289" height="14" rx="3"/>
<text class="value" x="507" y="292">629</text>
</svg>
